<?xml version="1.0" encoding="UTF-8" standalone="no"?>
<!-- Created with Inkscape (http://www.inkscape.org/) -->

<svg
   xmlns:dc="http://purl.org/dc/elements/1.1/"
   xmlns:cc="http://creativecommons.org/ns#"
   xmlns:rdf="http://www.w3.org/1999/02/22-rdf-syntax-ns#"
   xmlns:svg="http://www.w3.org/2000/svg"
   xmlns="http://www.w3.org/2000/svg"
   xmlns:sodipodi="http://sodipodi.sourceforge.net/DTD/sodipodi-0.dtd"
   xmlns:inkscape="http://www.inkscape.org/namespaces/inkscape"
   width="432mm"
   height="95mm"
   viewBox="0 0 432 95"
   version="1.1"
   id="svg8"
   inkscape:version="0.92.5 (2060ec1f9f, 2020-04-08)"
   sodipodi:docname="addon-redux-header.svg">
  <defs
     id="defs2" />
  <sodipodi:namedview
     id="base"
     pagecolor="#ffffff"
     bordercolor="#666666"
     borderopacity="1.0"
     inkscape:pageopacity="0.0"
     inkscape:pageshadow="2"
     inkscape:zoom="0.45477375"
     inkscape:cx="746.94714"
     inkscape:cy="125.84909"
     inkscape:document-units="mm"
     inkscape:current-layer="layer1"
     showgrid="false"
     inkscape:window-width="1920"
     inkscape:window-height="1046"
     inkscape:window-x="0"
     inkscape:window-y="16"
     inkscape:window-maximized="0"
     viewbox-width="500" />
  <metadata
     id="metadata5">
    <rdf:RDF>
      <cc:Work
         rdf:about="">
        <dc:format>image/svg+xml</dc:format>
        <dc:type
           rdf:resource="http://purl.org/dc/dcmitype/StillImage" />
        <dc:title></dc:title>
      </cc:Work>
    </rdf:RDF>
  </metadata>
  <g
     inkscape:label="Layer 1"
     inkscape:groupmode="layer"
     id="layer1"
     transform="translate(0,-202)">
    <path
       style="fill:#764abc;fill-opacity:1;stroke-width:0.15969396"
       d="m 78.505906,207.44563 c -0.468508,-0.008 -1.109992,0.0292 -2.162733,0.10891 -1.346582,0.1018 -2.474381,0.20901 -2.506129,0.23829 -0.0318,0.0293 0.02991,2.17832 0.137231,4.77553 0.249974,6.0516 0.268693,6.01889 -2.289357,3.99859 -0.834076,-0.65874 -1.570201,-1.1977 -1.635624,-1.1977 -0.06539,0 -0.924117,0.61082 -1.908206,1.35739 -1.8053,1.36957 -2.335838,1.5888 -2.608751,1.07794 -0.09081,-0.16988 -0.09767,-1.31274 -0.0175,-2.91443 0.07248,-1.44922 0.174679,-3.55952 0.22706,-4.68975 l 0.09518,-2.05512 -0.841833,0.096 c -0.463057,0.0529 -2.674316,0.20803 -4.914024,0.34465 -2.239696,0.13664 -5.689086,0.35218 -7.665305,0.47877 -1.976218,0.1266 -4.850704,0.30651 -6.387755,0.39986 -1.537058,0.0934 -4.986442,0.3101 -7.66531,0.48158 -2.67887,0.17147 -5.553361,0.34937 -6.387757,0.39549 -5.77761,0.31925 -11.529242,0.75001 -12.131754,0.90857 -0.493477,0.12986 -0.969215,0.43694 -1.542043,0.9956 -1.3391,1.30595 -1.369327,1.51323 -1.097896,7.48253 0.124625,2.74072 0.302647,7.42626 0.395802,10.41255 0.09315,2.98627 0.274279,7.83698 0.402356,10.77933 0.128083,2.94236 0.307796,7.72122 0.399544,10.61966 0.09175,2.89845 0.272588,7.7132 0.401728,10.69949 0.12914,2.98627 0.307036,7.62139 0.395495,10.30026 0.08845,2.67887 0.20328,6.09232 0.254826,7.58546 0.113382,3.28291 0.318352,4.1533 1.206435,5.11675 1.200213,1.30209 1.47853,1.34202 12.193818,1.75446 1.317475,0.0508 4.371618,0.19402 6.786999,0.31845 2.415363,0.12443 6.403727,0.30247 8.863006,0.3958 2.459283,0.0933 6.483574,0.27389 8.942869,0.40111 2.459283,0.12723 6.591364,0.31239 9.182402,0.4114 2.591039,0.099 6.291941,0.26723 8.224245,0.37398 1.932291,0.10677 3.728853,0.1657 3.992342,0.13099 1.627915,-0.21448 2.914903,-1.16607 3.426558,-2.53358 0.32501,-0.86885 0.326252,-1.00219 0.326252,-38.2283 0,-37.32642 -3.07e-4,-37.35705 -0.329055,-38.23548 -0.419603,-1.12148 -1.459964,-2.07466 -2.638383,-2.41724 -0.360896,-0.10488 -0.656216,-0.1594 -1.124724,-0.1678 z m -27.977015,14.8141 c 5.525853,0.02 10.783204,4.13722 13.186617,10.32679 0.61132,1.57434 1.52301,5.50348 1.52301,6.56367 v 0.54021 l -1.688631,-0.48751 -1.688655,-0.48718 -0.281332,-1.39889 c -1.124512,-5.59325 -4.217511,-9.93312 -7.989061,-11.20945 -2.244084,-0.75942 -5.747628,-0.3055 -8.537079,1.10569 -2.939906,1.4873 -5.606566,5.46519 -6.743947,10.06009 -0.63485,2.56473 -0.690927,8.00437 -0.110413,10.72569 0.745014,3.49244 2.941421,8.72717 3.561925,8.48906 0.475165,-0.18233 2.155244,0.33038 2.870749,0.87612 2.334244,1.78041 1.83449,5.42045 -0.915745,6.66973 -1.053105,0.47836 -1.679995,0.49661 -2.85079,0.0827 -1.892969,-0.66933 -3.020608,-2.78154 -2.525157,-4.73031 0.251211,-0.98808 0.232777,-1.06503 -0.714257,-2.9509 -2.228825,-4.43837 -3.255595,-8.58998 -3.289944,-13.30357 -0.02498,-3.43164 0.255478,-5.36018 1.223594,-8.41574 1.405263,-4.43532 3.740992,-7.737 7.006885,-9.90477 2.373403,-1.57537 5.447221,-2.56048 7.962231,-2.55137 z m -3.509209,16.41573 c 1.282673,-0.0403 2.600972,0.46714 3.276213,1.38829 0.386567,0.52733 0.555535,0.56458 3.466488,0.76166 4.715733,0.31926 7.938821,1.12956 11.804256,2.96806 5.393671,2.56536 10.465571,7.72235 12.251208,12.45644 1.935732,5.13202 1.423262,10.07123 -1.410421,13.59363 -1.776957,2.20886 -4.968321,4.1637 -8.108521,4.96674 -1.965907,0.50275 -5.636574,0.62651 -7.578609,0.25545 -1.78391,-0.34084 -4.862802,-1.32402 -5.389037,-1.72077 -0.30712,-0.23155 -0.167181,-0.41652 1.084796,-1.43443 1.049772,-0.85353 1.563591,-1.13714 1.905711,-1.05205 0.257648,0.0641 1.157088,0.32581 1.998684,0.58169 1.922666,0.58463 5.443487,0.80635 7.152218,0.4504 3.08458,-0.64259 5.811857,-2.80356 7.274812,-5.76366 1.00607,-2.03564 1.240188,-4.26336 0.681828,-6.4913 -0.506736,-2.02201 -1.910772,-4.75745 -3.410039,-6.64415 -4.118164,-5.18226 -12.23664,-8.87611 -19.508555,-8.87611 -1.543667,0 -1.550253,0.003 -2.320869,0.90295 -0.425031,0.49655 -1.095153,1.03739 -1.489323,1.20208 -2.90452,1.21359 -5.987857,-1.43396 -5.289547,-4.54193 0.272046,-1.21075 0.916596,-2.07082 1.945335,-2.59564 0.504727,-0.25749 1.080338,-0.38899 1.663372,-0.40735 z m -15.716131,8.28537 0.452258,1.80156 0.45226,1.80123 -1.082299,0.94694 c -2.139273,1.87137 -4.023811,4.84627 -4.690077,7.40424 -1.491996,5.72817 2.323446,11.53354 8.235156,12.53068 2.157677,0.36394 5.953791,0.15803 8.052692,-0.43697 5.713799,-1.61977 11.997722,-6.34836 14.913606,-11.22225 l 0.890797,-1.48871 -0.446339,-0.80658 c -0.627673,-1.13442 -0.776871,-2.04981 -0.501225,-3.07348 0.763083,-2.83391 4.132258,-3.93457 6.344711,-2.0729 0.944797,0.79498 1.376119,1.74395 1.376119,3.02825 0,1.78074 -0.961777,3.14911 -2.610313,3.71351 -0.718684,0.24605 -0.987932,0.54394 -1.859253,2.05638 -2.698687,4.68437 -6.262238,8.14519 -10.915954,10.60155 -4.523547,2.38766 -10.671391,3.72791 -14.611059,3.18546 -4.459243,-0.61398 -8.134717,-2.71031 -10.11,-5.76645 -1.685373,-2.60761 -2.47449,-6.68306 -1.930361,-9.96871 0.704984,-4.25698 3.03778,-8.03598 7.027471,-11.38443 z"
       id="path4610"
       inkscape:connector-curvature="0"
       inkscape:export-xdpi="25.330826"
       inkscape:export-ydpi="25.330826" />
    <text
       xml:space="preserve"
       style="font-size:43.23414993px;line-height:1.25;font-family:'Nimbus Sans Becker PBla';-inkscape-font-specification:'Nimbus Sans Becker PBla';letter-spacing:0px;word-spacing:0px;fill:#764abc;fill-opacity:1;stroke-width:1.0808537"
       x="110.75149"
       y="263.1189"
       id="text4685"><tspan
         sodipodi:role="line"
         id="tspan4683"
         x="110.75149"
         y="263.1189"
         style="font-style:normal;font-variant:normal;font-weight:normal;font-stretch:normal;font-family:'Nimbus Sans Becker PBla';-inkscape-font-specification:'Nimbus Sans Becker PBla';fill:#764abc;fill-opacity:1;stroke-width:1.0808537">Addon Redux</tspan></text>
  </g>
</svg>
