<?xml version="1.0" encoding="UTF-8" standalone="no"?>
<!-- Created with Inkscape (http://www.inkscape.org/) -->

<svg
   xmlns:dc="http://purl.org/dc/elements/1.1/"
   xmlns:cc="http://creativecommons.org/ns#"
   xmlns:rdf="http://www.w3.org/1999/02/22-rdf-syntax-ns#"
   xmlns:svg="http://www.w3.org/2000/svg"
   xmlns="http://www.w3.org/2000/svg"
   xmlns:sodipodi="http://sodipodi.sourceforge.net/DTD/sodipodi-0.dtd"
   xmlns:inkscape="http://www.inkscape.org/namespaces/inkscape"
   width="203mm"
   height="252mm"
   viewBox="0 0 203 252"
   version="1.1"
   id="svg8"
   inkscape:version="0.92.5 (2060ec1f9f, 2020-04-08)"
   sodipodi:docname="addon-redux.svg">
  <defs
     id="defs2" />
  <sodipodi:namedview
     id="base"
     pagecolor="#ffffff"
     bordercolor="#666666"
     borderopacity="1.0"
     inkscape:pageopacity="0.0"
     inkscape:pageshadow="2"
     inkscape:zoom="0.49497475"
     inkscape:cx="552.05979"
     inkscape:cy="631.97632"
     inkscape:document-units="mm"
     inkscape:current-layer="layer1"
     showgrid="false"
     inkscape:window-width="1920"
     inkscape:window-height="1046"
     inkscape:window-x="0"
     inkscape:window-y="16"
     inkscape:window-maximized="0" />
  <metadata
     id="metadata5">
    <rdf:RDF>
      <cc:Work
         rdf:about="">
        <dc:format>image/svg+xml</dc:format>
        <dc:type
           rdf:resource="http://purl.org/dc/dcmitype/StillImage" />
        <dc:title></dc:title>
      </cc:Work>
    </rdf:RDF>
  </metadata>
  <g
     inkscape:label="Layer 1"
     inkscape:groupmode="layer"
     id="layer1"
     transform="translate(0,-45)">
    <path
       style="fill:#764abc;stroke-width:0.488671;fill-opacity:1"
       d="m 189.4239,46.431142 c -1.43365,-0.02567 -3.39662,0.08957 -6.61806,0.333096 -4.12061,0.311395 -7.57173,0.639616 -7.66889,0.729193 -0.0972,0.08957 0.0917,6.665793 0.41995,14.613365 0.76491,18.518179 0.82219,18.418094 -7.00556,12.235867 -2.55231,-2.015774 -4.80488,-3.665042 -5.00506,-3.665042 -0.20016,0 -2.82784,1.869165 -5.83923,4.153708 -5.5243,4.190923 -7.14774,4.86177 -7.9829,3.298533 -0.27783,-0.519823 -0.29867,-4.017033 -0.0534,-8.918254 0.22187,-4.434682 0.53452,-10.892361 0.69483,-14.350878 l 0.2911,-6.288776 -2.57602,0.29396 c -1.417,0.161793 -8.18353,0.636549 -15.03714,1.054643 -6.8536,0.418112 -17.4089,1.077692 -23.45622,1.465071 -6.04731,0.387378 -14.843373,0.937897 -19.546822,1.223582 -4.703469,0.285667 -15.258746,0.948924 -23.45621,1.473641 -8.197465,0.524719 -16.993544,1.069124 -19.546836,1.210231 -17.679757,0.976905 -35.280023,2.295051 -37.1237371,2.780262 -1.5100632,0.397389 -2.9658445,1.337078 -4.7187245,3.046574 -4.0977077,3.996273 -4.1902036,4.630551 -3.359613,22.896899 0.381357,8.386741 0.9261136,22.724733 1.2111717,31.862883 0.285057,9.13815 0.8393074,23.98153 1.2312297,32.98529 0.3919397,9.00377 0.9418679,23.62726 1.2226223,32.49662 0.2807544,8.86938 0.8341352,23.6028 1.2293082,32.74096 0.3951721,9.13812 0.9395412,23.32182 1.2102293,31.51928 0.270689,8.19746 0.6220521,18.64279 0.7797811,23.21186 0.3469671,10.04586 0.9741722,12.7093 3.6917493,15.65752 3.672707,3.98444 4.524371,4.10663 37.313658,5.3687 4.031532,0.15515 13.377354,0.59371 20.768536,0.97449 7.391124,0.38078 19.595704,0.92556 27.121222,1.21117 7.525515,0.28562 19.840045,0.83809 27.365595,1.22741 7.52551,0.38932 20.16988,0.95589 28.09858,1.2589 7.92869,0.30298 19.25364,0.81775 25.16656,1.14436 5.91292,0.32668 11.41047,0.50706 12.21677,0.40089 4.98151,-0.65637 8.91975,-3.56827 10.48544,-7.7529 0.99454,-2.65873 0.99833,-3.06676 0.99833,-116.98039 0,-114.220622 -9.2e-4,-114.314317 -1.00693,-117.002344 -1.284,-3.431791 -4.46753,-6.348598 -8.07357,-7.396887 -1.10434,-0.321036 -2.00806,-0.487759 -3.4417,-0.513487 z m -85.61098,45.331876 c 16.90936,0.06113 32.99711,12.660072 40.35165,31.600412 1.87067,4.81756 4.6605,16.84092 4.6605,20.08514 v 1.65309 l -5.16731,-1.4918 -5.16733,-1.49081 -0.86089,-4.28065 c -3.44107,-17.11563 -12.90581,-30.39583 -24.44692,-34.30147 -6.867,-2.32383 -17.588021,-0.93485 -26.123865,3.38347 -8.99625,4.55125 -17.156352,16.72373 -20.636793,30.78438 -1.942672,7.84818 -2.114271,24.49371 -0.33788,32.82111 2.279778,10.68703 9.000887,26.70553 10.899658,25.97689 1.454027,-0.55793 6.595148,1.011 8.784628,2.681 7.142896,5.44813 5.613625,16.58685 -2.802223,20.40966 -3.222551,1.4638 -5.140863,1.51967 -8.723549,0.25293 -5.792575,-2.04821 -9.243206,-8.51169 -7.727104,-14.47498 0.768718,-3.0236 0.712311,-3.25907 -2.185657,-9.02992 -6.820308,-13.58161 -9.962277,-26.28573 -10.067387,-40.70955 -0.07646,-10.50096 0.781775,-16.40238 3.744259,-25.75256 4.300168,-13.57229 11.447608,-23.67559 21.441395,-30.309069 7.262726,-4.820711 16.668755,-7.835162 24.364818,-7.807273 z M 93.074571,141.99591 c 3.925045,-0.12356 7.959099,1.42944 10.025369,4.24819 1.18293,1.61369 1.69995,1.72769 10.60762,2.33074 14.43037,0.97692 24.29315,3.45652 36.12157,9.08241 16.50488,7.85013 32.02515,23.63074 37.48928,38.1173 5.92341,15.7042 4.35526,30.81844 -4.31596,41.59714 -5.43758,6.75922 -15.2033,12.74113 -24.81246,15.19845 -6.01578,1.53843 -17.24818,1.91716 -23.19088,0.78168 -5.45886,-1.04299 -14.88043,-4.05157 -16.49072,-5.26563 -0.93981,-0.70857 -0.51157,-1.27455 3.31951,-4.38944 3.21235,-2.61184 4.78467,-3.47969 5.83159,-3.2193 0.78842,0.19618 3.54075,0.99696 6.11604,1.78001 5.88348,1.78895 16.65734,2.46746 21.88616,1.37821 9.43895,-1.96632 17.78452,-8.57899 22.26125,-17.63702 3.07861,-6.22917 3.79503,-13.04609 2.08641,-19.86372 -1.55061,-6.18745 -5.84703,-14.558 -10.43486,-20.33138 -12.60177,-15.85798 -37.44472,-27.16133 -59.69709,-27.16133 -4.72371,0 -4.74386,0.008 -7.10197,2.76309 -1.30062,1.51948 -3.351218,3.17442 -4.557426,3.67839 -8.88795,3.71362 -18.323108,-4.38799 -16.186247,-13.89849 0.832474,-3.705 2.804826,-6.33682 5.952816,-7.9428 1.54449,-0.78793 3.305885,-1.19033 5.089998,-1.2465 z m -48.092101,25.35363 1.383935,5.51281 1.383935,5.51188 -3.311888,2.89765 c -6.546277,5.72652 -12.313051,14.82982 -14.351857,22.65736 -4.565577,17.52845 7.109853,35.29317 25.199967,38.34445 6.60259,1.1137 18.21888,0.48359 24.641616,-1.33717 17.484497,-4.95653 36.713582,-19.42626 45.636352,-34.34059 l 2.72585,-4.55553 -1.3658,-2.46817 c -1.92073,-3.47136 -2.37726,-6.27249 -1.53378,-9.40499 2.33508,-8.67187 12.64489,-12.03996 19.41513,-6.34319 2.89112,2.43269 4.21098,5.33661 4.21098,9.26661 0,5.44914 -2.9431,9.63642 -7.98767,11.36351 -2.19923,0.75293 -3.02312,1.66448 -5.68941,6.29261 -8.2581,14.33442 -19.16274,24.92467 -33.40334,32.44126 -13.842264,7.30636 -32.654957,11.40755 -44.710525,9.74764 -13.645493,-1.8788 -24.892617,-8.29367 -30.937078,-17.6456 -5.15732,-7.97939 -7.572053,-20.45048 -5.906995,-30.50471 2.157288,-13.02657 9.295752,-24.59047 21.504395,-34.8369 z"
       id="path4610"
       inkscape:connector-curvature="0" />
  </g>
</svg>
